<svg width="17" height="16" viewBox="0 0 17 16" fill="none" xmlns="http://www.w3.org/2000/svg">
<path d="M7.74934 15.4893C7.55231 15.4897 7.36263 15.4146 7.21934 15.2793L0.21934 8.27934C-0.0731134 7.98652 -0.0731134 7.51216 0.21934 7.21934L7.21934 0.21934C7.51216 -0.0731134 7.98652 -0.0731134 8.27934 0.21934C8.42229 0.358628 8.50291 0.549753 8.50291 0.74934C8.50291 0.948928 8.42229 1.14005 8.27934 1.27934L1.81934 7.75934L8.26934 14.2093C8.41229 14.3486 8.49291 14.5398 8.49291 14.7393C8.49291 14.9389 8.41229 15.1301 8.26934 15.2693C8.13387 15.4114 7.94563 15.491 7.74934 15.4893Z" fill="#4B5563"/>
<path d="M15.7893 8.50928H0.789307C0.375093 8.50928 0.0393066 8.17349 0.0393066 7.75928C0.0393066 7.34506 0.375093 7.00928 0.789307 7.00928H15.7893C16.2035 7.00928 16.5393 7.34506 16.5393 7.75928C16.5393 8.17349 16.2035 8.50928 15.7893 8.50928Z" fill="#4B5563"/>
</svg>
