<svg width="22" height="17" viewBox="0 0 22 17" fill="none" xmlns="http://www.w3.org/2000/svg">
<path d="M13.5 12.84C13.501 11.3776 14.0361 9.96589 15.0047 8.87022C15.9733 7.77456 17.3088 7.07037 18.76 6.89001L21.5 6.55001V3.43001C21.5043 2.99807 21.4152 2.57031 21.2389 2.17597C21.0626 1.78163 20.8032 1.43001 20.4785 1.14516C20.1538 0.860315 19.7713 0.64895 19.3574 0.525522C18.9434 0.402094 18.5077 0.369513 18.08 0.430008L15.35 0.820008C14.7862 0.900019 14.2139 0.900019 13.65 0.820008L8.35002 0.0600083C7.78618 -0.0200028 7.21387 -0.0200028 6.65002 0.0600083L3.08002 0.570008C2.35919 0.671892 1.7 1.03241 1.22532 1.58437C0.750642 2.13632 0.492859 2.84205 0.500024 3.57001V13.43C0.495767 13.8619 0.584837 14.2897 0.761144 14.684C0.937451 15.0784 1.19684 15.43 1.52156 15.7149C1.84629 15.9997 2.22871 16.2111 2.64265 16.3345C3.0566 16.4579 3.49232 16.4905 3.92002 16.43L6.65002 16.04C7.21387 15.96 7.78618 15.96 8.35002 16.04L13.5 16.78V12.84ZM3.24002 1.43001C3.37847 1.43001 3.51381 1.47106 3.62892 1.54798C3.74404 1.6249 3.83376 1.73422 3.88674 1.86213C3.93972 1.99004 3.95358 2.13078 3.92657 2.26657C3.89956 2.40236 3.8329 2.52709 3.735 2.62498C3.6371 2.72288 3.51237 2.78955 3.37659 2.81656C3.2408 2.84357 3.10005 2.8297 2.97215 2.77672C2.84424 2.72374 2.73491 2.63402 2.65799 2.51891C2.58108 2.40379 2.54002 2.26845 2.54002 2.13001C2.54002 2.03808 2.55813 1.94706 2.59331 1.86213C2.62849 1.7772 2.68005 1.70003 2.74505 1.63503C2.81005 1.57003 2.88722 1.51847 2.97215 1.48329C3.05707 1.44811 3.1481 1.43001 3.24002 1.43001ZM2.60002 4.20001C2.57963 4.02179 2.62843 3.84254 2.73636 3.69926C2.84428 3.55598 3.0031 3.4596 3.18002 3.43001C3.27077 3.41436 3.36373 3.41703 3.45343 3.43787C3.54313 3.4587 3.62775 3.49728 3.70231 3.55134C3.77687 3.60539 3.83985 3.67382 3.88754 3.75259C3.93524 3.83137 3.96668 3.91889 3.98002 4.01001C3.99575 4.10003 3.99345 4.19228 3.97323 4.2814C3.95302 4.37053 3.9153 4.45475 3.86227 4.52917C3.80924 4.6036 3.74196 4.66675 3.66432 4.71496C3.58669 4.76317 3.50025 4.79548 3.41002 4.81001H3.29002C3.12068 4.80899 2.95745 4.74663 2.83058 4.63446C2.7037 4.5223 2.62179 4.36795 2.60002 4.20001V4.20001ZM4.53002 6.43001C4.40362 6.52662 4.24912 6.57929 4.09002 6.58001C3.98388 6.57965 3.8792 6.55516 3.78391 6.50838C3.68863 6.4616 3.60523 6.39377 3.54002 6.31001C3.48197 6.23658 3.439 6.1524 3.4136 6.06231C3.3882 5.97221 3.38086 5.87799 3.39202 5.78505C3.40317 5.69211 3.43259 5.60229 3.47858 5.52077C3.52458 5.43924 3.58624 5.36761 3.66002 5.31001C3.73231 5.24929 3.8163 5.20404 3.90677 5.17708C3.99725 5.15012 4.0923 5.14201 4.18603 5.15326C4.27977 5.16451 4.3702 5.19488 4.45173 5.24248C4.53326 5.29008 4.60415 5.35391 4.66002 5.43001C4.71885 5.50351 4.76225 5.58812 4.78762 5.67878C4.81298 5.76945 4.8198 5.86429 4.80767 5.95765C4.79553 6.05101 4.76469 6.14096 4.71698 6.22212C4.66928 6.30329 4.60569 6.37399 4.53002 6.43001V6.43001ZM6.31002 7.43001C6.25542 7.55726 6.16479 7.66577 6.0493 7.74217C5.93381 7.81857 5.7985 7.85953 5.66002 7.86001C5.5668 7.8593 5.47478 7.83885 5.39002 7.80001C5.29712 7.76658 5.21233 7.71388 5.14123 7.64537C5.07014 7.57685 5.01434 7.49407 4.97751 7.40246C4.94068 7.31085 4.92364 7.21249 4.92752 7.11383C4.9314 7.01517 4.95611 6.91844 5.00002 6.83001C5.0341 6.74097 5.08576 6.65971 5.15192 6.59106C5.21808 6.52242 5.29739 6.46781 5.38512 6.43048C5.47284 6.39315 5.56719 6.37387 5.66252 6.37379C5.75786 6.37371 5.85224 6.39283 5.94002 6.43001V6.43001C6.03526 6.46484 6.12179 6.51995 6.19363 6.59152C6.26547 6.66309 6.3209 6.74941 6.35609 6.84451C6.39128 6.93962 6.40538 7.04123 6.39743 7.14233C6.38948 7.24342 6.35965 7.34158 6.31002 7.43001V7.43001ZM7.62002 8.18001C7.48158 8.18001 7.34624 8.13895 7.23112 8.06204C7.11601 7.98512 7.02629 7.8758 6.97331 7.74789C6.92033 7.61998 6.90646 7.47923 6.93347 7.34345C6.96048 7.20766 7.02715 7.08293 7.12505 6.98503C7.22295 6.88714 7.34767 6.82047 7.48346 6.79346C7.61925 6.76645 7.75999 6.78031 7.8879 6.83329C8.01581 6.88627 8.12514 6.97599 8.20205 7.09111C8.27897 7.20622 8.32002 7.34156 8.32002 7.48001C8.30736 7.65686 8.22806 7.82232 8.09813 7.94297C7.9682 8.06361 7.79733 8.13046 7.62002 8.13001V8.18001ZM12.91 9.39001C12.777 9.52191 12.5973 9.59592 12.41 9.59592C12.2227 9.59592 12.043 9.52191 11.91 9.39001L11 8.43001L10.08 9.35001C9.94704 9.48191 9.76733 9.55592 9.58002 9.55592C9.39272 9.55592 9.213 9.48191 9.08002 9.35001C8.94812 9.21703 8.87411 9.03731 8.87411 8.85001C8.87411 8.6627 8.94812 8.48299 9.08002 8.35001L10 7.43001L9.08002 6.51001C8.94742 6.3774 8.87292 6.19754 8.87292 6.01001C8.87292 5.82247 8.94742 5.64262 9.08002 5.51001C9.21263 5.3774 9.39249 5.3029 9.58002 5.3029C9.76756 5.3029 9.94742 5.3774 10.08 5.51001L11 6.43001L11.92 5.51001C11.9857 5.44435 12.0636 5.39226 12.1494 5.35673C12.2352 5.32119 12.3272 5.3029 12.42 5.3029C12.5129 5.3029 12.6048 5.32119 12.6906 5.35673C12.7764 5.39226 12.8544 5.44435 12.92 5.51001C12.9857 5.57567 13.0378 5.65362 13.0733 5.73941C13.1088 5.8252 13.1271 5.91715 13.1271 6.01001C13.1271 6.10287 13.1088 6.19482 13.0733 6.28061C13.0378 6.3664 12.9857 6.44435 12.92 6.51001L12 7.43001L12.92 8.35001C13.0476 8.48384 13.1179 8.66216 13.116 8.84704C13.1142 9.03192 13.0403 9.20878 12.91 9.34001V9.39001Z" fill="#0085CC"/>
<path d="M19 8.87006C18.028 8.99249 17.1347 9.46739 16.4896 10.2047C15.8444 10.942 15.4923 11.8904 15.5 12.8701V16.8201L18.92 16.3301C19.6408 16.2282 20.3 15.8677 20.7747 15.3157C21.2494 14.7637 21.5072 14.058 21.5 13.3301V8.56006L19 8.87006Z" fill="#6CB42D"/>
</svg>
