<svg width="16" height="20" viewBox="0 0 16 20" fill="none" xmlns="http://www.w3.org/2000/svg">
<path d="M12 11.0439C11.2044 11.0439 10.4413 11.36 9.87868 11.9226C9.31607 12.4852 9 13.2483 9 14.0439V19.0439H13C13.7956 19.0439 14.5587 18.7279 15.1213 18.1653C15.6839 17.6027 16 16.8396 16 16.0439V11.0439H12Z" fill="#9096A0"/>
<path d="M14.63 4.84393L10 0.763932C9.44998 0.271977 8.73793 0 8 0C7.26207 0 6.55002 0.271977 6 0.763932L1.37 4.84393C0.940236 5.21896 0.59565 5.68157 0.359361 6.20072C0.123072 6.71986 0.00054469 7.28354 0 7.85393V16.0439C0 16.8396 0.316071 17.6026 0.87868 18.1653C1.44129 18.7279 2.20435 19.0439 3 19.0439H7V14.0439C7 12.7178 7.52678 11.4461 8.46447 10.5084C9.40215 9.57072 10.6739 9.04393 12 9.04393H16V7.85393C15.9995 7.28354 15.8769 6.71986 15.6406 6.20072C15.4043 5.68157 15.0598 5.21896 14.63 4.84393ZM3.5 17.0439C3.20376 17.0439 2.91415 16.9562 2.66769 16.7918C2.42124 16.6274 2.22898 16.3937 2.11516 16.1202C2.00134 15.8467 1.97106 15.5457 2.02813 15.255C2.0852 14.9643 2.22708 14.697 2.43586 14.4868C2.64463 14.2766 2.91097 14.133 3.20128 14.074C3.49159 14.015 3.79287 14.0433 4.06713 14.1553C4.34139 14.2673 4.57634 14.458 4.74236 14.7033C4.90838 14.9487 4.99802 15.2377 5 15.5339C5.00132 15.7318 4.96349 15.9279 4.8887 16.111C4.81391 16.2942 4.70363 16.4607 4.56421 16.6011C4.42479 16.7414 4.25899 16.8528 4.07634 16.9288C3.8937 17.0048 3.69783 17.0439 3.5 17.0439Z" fill="#9096A0"/>
</svg>
