<svg width="17" height="20" viewBox="0 0 17 20" fill="none" xmlns="http://www.w3.org/2000/svg">
<path d="M12.9399 0.5C14.0008 0.5 15.0182 0.921427 15.7684 1.67157C16.5185 2.42172 16.9399 3.43913 16.9399 4.5H12.9399V0.5Z" fill="#9096A0"/>
<path d="M11.9399 6.5C11.6747 6.5 11.4204 6.39464 11.2328 6.20711C11.0453 6.01957 10.9399 5.76522 10.9399 5.5V0.5H4.93994C3.87908 0.5 2.86166 0.921427 2.11151 1.67157C1.36137 2.42172 0.939941 3.43913 0.939941 4.5V15.5C0.939941 16.5609 1.36137 17.5783 2.11151 18.3284C2.86166 19.0786 3.87908 19.5 4.93994 19.5H12.9399C14.0008 19.5 15.0182 19.0786 15.7684 18.3284C16.5185 17.5783 16.9399 16.5609 16.9399 15.5V6.5H11.9399ZM4.93994 4.5H6.93994C7.20516 4.5 7.45951 4.60536 7.64705 4.79289C7.83458 4.98043 7.93994 5.23478 7.93994 5.5C7.93994 5.76522 7.83458 6.01957 7.64705 6.20711C7.45951 6.39464 7.20516 6.5 6.93994 6.5H4.93994C4.67472 6.5 4.42037 6.39464 4.23283 6.20711C4.0453 6.01957 3.93994 5.76522 3.93994 5.5C3.93994 5.23478 4.0453 4.98043 4.23283 4.79289C4.42037 4.60536 4.67472 4.5 4.93994 4.5V4.5ZM12.9399 15.5H4.93994C4.67472 15.5 4.42037 15.3946 4.23283 15.2071C4.0453 15.0196 3.93994 14.7652 3.93994 14.5C3.93994 14.2348 4.0453 13.9804 4.23283 13.7929C4.42037 13.6054 4.67472 13.5 4.93994 13.5H12.9399C13.2052 13.5 13.4595 13.6054 13.647 13.7929C13.8346 13.9804 13.9399 14.2348 13.9399 14.5C13.9399 14.7652 13.8346 15.0196 13.647 15.2071C13.4595 15.3946 13.2052 15.5 12.9399 15.5V15.5ZM12.9399 11H4.93994C4.67472 11 4.42037 10.8946 4.23283 10.7071C4.0453 10.5196 3.93994 10.2652 3.93994 10C3.93994 9.73478 4.0453 9.48043 4.23283 9.29289C4.42037 9.10536 4.67472 9 4.93994 9H12.9399C13.2052 9 13.4595 9.10536 13.647 9.29289C13.8346 9.48043 13.9399 9.73478 13.9399 10C13.9399 10.2652 13.8346 10.5196 13.647 10.7071C13.4595 10.8946 13.2052 11 12.9399 11V11Z" fill="#9096A0"/>
</svg>
