<svg width="19" height="19" viewBox="0 0 19 19" fill="none" xmlns="http://www.w3.org/2000/svg">
<path fill-rule="evenodd" clip-rule="evenodd" d="M17.3052 5.4889C15.9873 2.32427 12.8994 0.259275 9.47129 0.250119C5.77664 0.230663 2.49146 2.59721 1.33976 6.10782C0.188066 9.61842 1.43296 13.4711 4.42113 15.644C7.40931 17.817 11.4581 17.8137 14.4428 15.636L17.1042 18.2974C17.3748 18.5676 17.8131 18.5676 18.0837 18.2974C18.3539 18.0268 18.3539 17.5884 18.0837 17.3178L15.5055 14.7397C17.9137 12.2999 18.6232 8.65353 17.3052 5.4889ZM16.0696 11.4952C14.963 14.1618 12.3583 15.8986 9.47127 15.8948V15.8579C5.55291 15.8529 2.372 12.6885 2.34663 8.77019C2.34289 5.88313 4.07963 3.27844 6.74622 2.17188C9.4128 1.06532 12.4835 1.67508 14.5249 3.71654C16.5664 5.758 17.1761 8.82865 16.0696 11.4952Z" fill="#4B5563"/>
</svg>
