<svg width="44" height="44" viewBox="0 0 44 44" fill="none" xmlns="http://www.w3.org/2000/svg">
<path d="M13.7843 19.5786C7.93428 19.5786 3.19165 24.3212 3.19165 30.1713H24.377C24.377 24.3212 19.6343 19.5786 13.7843 19.5786Z" fill="#FFD21D"/>
<path d="M38.1623 34.4815H40.9459C42.1361 34.4815 43.1009 33.5167 43.1009 32.3264C43.1009 31.1362 42.1361 30.1714 40.9459 30.1714H3.053C1.86277 30.1714 0.897949 31.1362 0.897949 32.3264C0.897949 33.5167 1.86277 34.4815 3.053 34.4815H5.21218C6.40242 34.4815 7.36724 35.4463 7.36724 36.6366C7.36724 37.8268 6.40233 38.7916 5.21218 38.7916H5.11825C3.92802 38.7916 2.9632 39.7564 2.9632 40.9467C2.9632 42.1369 3.92802 43.1017 5.11825 43.1017H38.8806C40.0708 43.1017 41.0357 42.1369 41.0357 40.9467C41.0357 39.7564 40.0708 38.7916 38.8806 38.7916H38.1623C36.972 38.7916 36.0072 37.8268 36.0072 36.6366C36.0072 35.4463 36.972 34.4815 38.1623 34.4815Z" fill="#10B8FA"/>
<path d="M34.1846 33.5835H29.7186C29.2228 33.5835 28.8207 33.9856 28.8207 34.4815C28.8207 34.9773 29.2228 35.3794 29.7186 35.3794H34.1846C34.6805 35.3794 35.0826 34.9773 35.0826 34.4815C35.0826 33.9856 34.6806 33.5835 34.1846 33.5835Z" fill="#4B5563"/>
<path d="M9.72438 35.3792H26.6657C27.1615 35.3792 27.5636 34.9771 27.5636 34.4812C27.5636 33.9854 27.1615 33.5833 26.6657 33.5833H9.72438C9.22852 33.5833 8.82642 33.9854 8.82642 34.4812C8.82642 34.9771 9.22852 35.3792 9.72438 35.3792Z" fill="#4B5563"/>
<path d="M34.1847 37.8936H32.8485C32.3527 37.8936 31.9506 38.2957 31.9506 38.7915C31.9506 39.2874 32.3527 39.6895 32.8485 39.6895H34.1847C34.6805 39.6895 35.0826 39.2874 35.0826 38.7915C35.0826 38.2957 34.6806 37.8936 34.1847 37.8936Z" fill="#4B5563"/>
<path d="M16.976 37.8936H14.8767C14.3809 37.8936 13.9788 38.2957 13.9788 38.7915C13.9788 39.2874 14.3809 39.6895 14.8767 39.6895H16.976C17.4719 39.6895 17.874 39.2874 17.874 38.7915C17.874 38.2957 17.4719 37.8936 16.976 37.8936Z" fill="#4B5563"/>
<path d="M11.8237 37.8936H9.81422C9.31836 37.8936 8.91626 38.2957 8.91626 38.7915C8.91626 39.2874 9.31836 39.6895 9.81422 39.6895H11.8237C12.3196 39.6895 12.7217 39.2874 12.7217 38.7915C12.7217 38.2957 12.3196 37.8936 11.8237 37.8936Z" fill="#4B5563"/>
<path d="M29.7956 37.8936H20.0291C19.5331 37.8936 19.1311 38.2957 19.1311 38.7915C19.1311 39.2874 19.5331 39.6895 20.0291 39.6895H29.7956C30.2915 39.6895 30.6936 39.2874 30.6936 38.7915C30.6936 38.2957 30.2915 37.8936 29.7956 37.8936Z" fill="#4B5563"/>
<path d="M40.9459 29.2746H38.5464V21.8913C39.7398 22.2723 40.6067 23.3916 40.6067 24.7098C40.6067 25.2056 41.0088 25.6077 41.5046 25.6077C42.0005 25.6077 42.4026 25.2056 42.4026 24.7098C42.4026 22.9834 41.4775 21.4695 40.0972 20.6366C40.9445 20.5573 41.8198 20.8412 42.4671 21.4886C42.8178 21.8392 43.3864 21.8392 43.7371 21.4886C44.0877 21.1379 44.0877 20.5695 43.7371 20.2187C42.2744 18.7561 40.0884 18.4487 38.3205 19.2941C38.4077 18.1771 39.1276 17.1562 40.2458 16.744C40.7112 16.5724 40.9491 16.0562 40.7777 15.5908C40.6061 15.1254 40.0901 14.888 39.6245 15.059C37.845 15.7152 36.6925 17.3304 36.5342 19.105C36.0238 18.9213 35.4802 18.8254 34.9218 18.8254C33.6525 18.8254 32.4587 19.3202 31.5601 20.2187C31.2095 20.5695 31.2095 21.1379 31.5601 21.4887C31.9108 21.8393 32.4794 21.8393 32.8301 21.4887C33.3895 20.9293 34.1323 20.6214 34.9218 20.6214C35.0164 20.6214 35.1103 20.626 35.2034 20.6348C33.8211 21.4672 32.8946 22.9823 32.8946 24.7099C32.8946 25.2058 33.2966 25.6079 33.7925 25.6079C34.2884 25.6079 34.6905 25.2058 34.6905 24.7099C34.6905 23.3916 35.5572 22.2725 36.7507 21.8915V29.2748H26.9654V11.1578C30.5993 11.5416 33.4236 14.221 33.4236 17.4611C33.4236 17.957 33.8257 18.3591 34.3215 18.3591C34.8174 18.3591 35.2195 17.957 35.2195 17.4611C35.2195 13.7645 32.4399 10.6353 28.6441 9.64216C31.4114 8.45493 34.8514 8.86812 37.1479 10.8854C37.3184 11.0353 37.5298 11.1088 37.7402 11.1088C37.9895 11.1088 38.2377 11.0055 38.4152 10.8034C38.7426 10.4309 38.7057 9.86345 38.3332 9.53628C36.6089 8.02163 34.3256 7.18752 31.904 7.18752C30.3213 7.18752 28.7989 7.54588 27.452 8.21551C27.5394 6.99812 27.3203 5.77059 26.792 4.6192C25.8185 2.49688 23.8712 0.829869 21.4495 0.0456029C20.9776 -0.107108 20.4713 0.151392 20.3185 0.623275C20.1658 1.09507 20.4244 1.60142 20.8962 1.75421C22.8412 2.38413 24.3952 3.7013 25.1597 5.36806C25.6513 6.43961 25.7909 7.59822 25.5778 8.72237C24.0296 7.72635 22.1751 7.18752 20.2306 7.18752C17.809 7.18752 15.5257 8.02163 13.8014 9.53628C13.4289 9.86362 13.392 10.4309 13.7194 10.8034C14.0467 11.176 14.614 11.2128 14.9866 10.8854C17.2831 8.86812 20.7231 8.45493 23.4904 9.64216C19.6946 10.6353 16.915 13.7645 16.915 17.4611C16.915 17.957 17.3171 18.3591 17.813 18.3591C18.3088 18.3591 18.7109 17.957 18.7109 17.4611C18.7109 14.221 21.5352 11.5416 25.1691 11.1578V28.6197C24.4087 23.0156 19.5932 18.6819 13.7839 18.6819C7.71994 18.6819 2.73874 23.4036 2.3222 29.3636C0.990687 29.6918 0 30.8959 0 32.3275C0 34.0109 1.3695 35.3805 3.05302 35.3805H5.2122C5.90537 35.3805 6.46929 35.9444 6.46929 36.6376C6.46929 37.3308 5.90537 37.8947 5.2122 37.8947H5.11827C3.43484 37.8947 2.06525 39.2642 2.06525 40.9477C2.06525 42.6312 3.43475 44.0007 5.11827 44.0007H38.8806C40.564 44.0007 41.9336 42.6312 41.9336 40.9477C41.9336 39.2642 40.5641 37.8947 38.8806 37.8947H38.1623C37.4691 37.8947 36.9052 37.3308 36.9052 36.6376C36.9052 35.9444 37.4691 35.3805 38.1623 35.3805H40.9459C42.6293 35.3805 43.9989 34.011 43.9989 32.3275C43.9988 30.6441 42.6293 29.2746 40.9459 29.2746ZM13.7842 20.4778C18.8271 20.4778 22.9823 24.3482 23.437 29.2746H4.13153C4.58605 24.3483 8.7413 20.4778 13.7842 20.4778ZM40.9459 33.5847H38.1623C36.4788 33.5847 35.1092 34.9542 35.1092 36.6377C35.1092 38.3212 36.4788 39.6907 38.1623 39.6907H38.8806C39.5738 39.6907 40.1377 40.2546 40.1377 40.9478C40.1377 41.641 39.5738 42.2049 38.8806 42.2049H5.11827C4.42509 42.2049 3.86117 41.641 3.86117 40.9478C3.86117 40.2546 4.42509 39.6907 5.11827 39.6907H5.2122C6.89563 39.6907 8.26521 38.3212 8.26521 36.6377C8.26521 34.9542 6.89563 33.5847 5.2122 33.5847H3.05302C2.35984 33.5847 1.79592 33.0208 1.79592 32.3276C1.79592 31.6344 2.35984 31.0705 3.05302 31.0705H40.9459C41.639 31.0705 42.203 31.6344 42.203 32.3276C42.203 33.0208 41.639 33.5847 40.9459 33.5847Z" fill="#4B5563"/>
</svg>
